<?xml version="1.0" encoding="utf-8"?>
<!-- Generator: Adobe Illustrator 16.0.4, SVG Export Plug-In . SVG Version: 6.00 Build 0)  -->
<!DOCTYPE svg PUBLIC "-//W3C//DTD SVG 1.1//EN" "http://www.w3.org/Graphics/SVG/1.1/DTD/svg11.dtd">
<svg version="1.1" id="Layer_1" xmlns="http://www.w3.org/2000/svg" xmlns:xlink="http://www.w3.org/1999/xlink" x="0px" y="0px"
	 width="112px" height="106.525px" viewBox="0 0 112 106.525" enable-background="new 0 0 112 106.525" xml:space="preserve">
<path d="M112,40.684l-40.203-3.542L56-0.001L40.203,37.142L0,40.684l30.439,26.5l-9.047,39.336L56,85.759l34.607,20.768
	L81.564,67.19L112,40.684z M60.802,77.751L56,74.872l-4.802,2.879l-15.792,9.475l4.13-17.947l1.255-5.457l-4.225-3.676L22.68,48.057
	l18.346-1.614l5.576-0.49l2.193-5.152L56,23.847l7.205,16.944l2.193,5.152l5.576,0.49l18.346,1.614L75.432,60.145l-4.224,3.678
	l1.255,5.455l4.13,17.947L60.802,77.751z"/>
</svg>
