<?xml version="1.0" encoding="utf-8"?>
<!-- Generator: Adobe Illustrator 16.0.0, SVG Export Plug-In . SVG Version: 6.00 Build 0)  -->
<!DOCTYPE svg PUBLIC "-//W3C//DTD SVG 1.1//EN" "http://www.w3.org/Graphics/SVG/1.1/DTD/svg11.dtd">
<svg version="1.1" id="Layer_1" xmlns="http://www.w3.org/2000/svg" xmlns:xlink="http://www.w3.org/1999/xlink" x="0px" y="0px"
	 width="50px" height="50px" viewBox="0 0 50 50" enable-background="new 0 0 50 50" xml:space="preserve">
<g>
	<path d="M30.825,30.493h-2.359c-0.229,0.373-0.452,0.731-0.666,1.072h2.511l4.292,5.358H15.397l4.292-5.358H22.2
		c-0.214-0.341-0.437-0.699-0.666-1.072h-2.359l-6.008,7.502h23.666L30.825,30.493z"/>
	<path d="M32.414,19.418c0-4.094-3.321-7.413-7.414-7.413s-7.414,3.319-7.414,7.413S25,34.245,25,34.245
		S32.414,23.512,32.414,19.418z M21.293,19.418c0-2.049,1.661-3.707,3.707-3.707s3.707,1.658,3.707,3.707S27.046,23.125,25,23.125
		S21.293,21.467,21.293,19.418z"/>
</g>
</svg>
